<svg width="52" height="52" xmlns="http://www.w3.org/2000/svg">
  <g>
  <title>Layer 1</title>
    <g id="svg_19">
        <path fill="#28A745" id="svg_2" d="m26,0c-14.336,0 -26,11.663 -26,26s11.664,26 26,26s26,-11.663 26,-26s-11.664,-26 -26,-26zm0,50c-13.233,0 -24,-10.767 -24,-24s10.767,-24 24,-24s24,10.767 24,24s-10.767,24 -24,24z"/>
        <path fill="#28A745" id="svg_3" d="m38.252,15.336l-15.369,17.29l-9.259,-7.407c-0.43,-0.345 -1.061,-0.274 -1.405,0.156c-0.345,0.432 -0.275,1.061 0.156,1.406l10,8c0.184,0.147 0.405,0.219 0.625,0.219c0.276,0 0.551,-0.114 0.748,-0.336l16,-18c0.367,-0.412 0.33,-1.045 -0.083,-1.411c-0.414,-0.368 -1.045,-0.331 -1.413,0.083z"/>
        <g id="svg_4"/>
        <g id="svg_5"/>
        <g id="svg_6"/>
        <g id="svg_7"/>
        <g id="svg_8"/>
        <g id="svg_9"/>
        <g id="svg_10"/>
        <g id="svg_11"/>
        <g id="svg_12"/>
        <g id="svg_13"/>
        <g id="svg_14"/>
        <g id="svg_15"/>
        <g id="svg_16"/>
        <g id="svg_17"/>
        <g id="svg_18"/>
    </g>
  </g>
</svg>